<?xml version="1.0" standalone="no"?><!DOCTYPE svg PUBLIC "-//W3C//DTD SVG 1.1//EN" "http://www.w3.org/Graphics/SVG/1.1/DTD/svg11.dtd"><svg t="1620650387027" class="icon" viewBox="0 0 1024 1024" version="1.1" xmlns="http://www.w3.org/2000/svg" p-id="1683" xmlns:xlink="http://www.w3.org/1999/xlink" width="200" height="200"><defs><style type="text/css"></style></defs><path d="M895.547475 98.133333H585.50303c-16.678788 0-30.125253 13.446465-30.125252 30.125253s13.446465 30.125253 30.125252 30.125252h238.286869L680.662626 301.511111c-63.870707-54.30303-144.161616-84.040404-228.977778-84.040404-94.513131 0-183.466667 36.719192-250.311111 103.692929C134.4 388.137374 97.680808 476.961616 97.680808 571.474747s36.719192 183.337374 103.692929 250.311112 155.79798 103.692929 250.311111 103.692929 183.337374-36.719192 250.311112-103.692929c66.844444-66.973737 103.692929-155.79798 103.692929-250.311112 0-84.169697-29.090909-163.684848-82.618182-227.296969l142.351515-142.351515V438.30303c0 16.678788 13.446465 30.125253 30.125253 30.125253s30.125253-13.446465 30.125252-30.125253V128.258586c0-16.678788-13.575758-30.125253-30.125252-30.125253zM451.684848 865.228283C289.680808 865.228283 157.931313 733.478788 157.931313 571.474747s131.749495-293.753535 293.753535-293.753535c79.90303 0 152.307071 32.064646 205.187879 83.911111 0.905051 1.163636 1.810101 2.327273 2.844445 3.232323 1.034343 1.034343 2.19798 1.939394 3.10303 2.715152 50.941414 52.880808 82.488889 124.767677 82.488889 203.894949 0.129293 162.00404-131.749495 293.753535-293.624243 293.753536z m0 0" fill="#69c0ff" p-id="1684"></path></svg>