<?xml version="1.0" standalone="no"?><!DOCTYPE svg PUBLIC "-//W3C//DTD SVG 1.1//EN" "http://www.w3.org/Graphics/SVG/1.1/DTD/svg11.dtd"><svg t="1617371469363" class="icon" viewBox="0 0 1024 1024" version="1.1" xmlns="http://www.w3.org/2000/svg" p-id="1334" xmlns:xlink="http://www.w3.org/1999/xlink" width="64" height="64"><defs><style type="text/css"></style></defs><path d="M891.6 625.6 891.6 134c0-73.6-60-133.6-129.2-133.6L270.8 0.4c-78.4 0-138.4 60-138.4 133.6l0 491.6c0 64 37.2 148 84.8 191.2l195.2 169.6c26.4 24 62 37.2 99.6 37.2 35.6 0 69.6-12 95.2-34l196.4-174.8c34.8-29.6 64-80 78.4-129.6 1.6-3.6 2.8-7.2 3.2-10.8C889.2 657.6 891.6 641.2 891.6 625.6L891.6 625.6zM821.6 134l0 480.8-119.6-66.4L702 70.4l56 0C792.8 70.4 821.6 98.8 821.6 134L821.6 134zM394.8 70.4l236.8 0 0 466.8L512 628.8l-117.6-71.2L394.4 70.4 394.8 70.4zM266.4 70.4l58.4 0 0 483.2-122 65.2L202.8 134C202.4 98.8 231.2 70.4 266.4 70.4L266.4 70.4zM758.4 761.6l-164 136.8c-23.2-18.4-52.4-29.2-84-29.2-34.4 0-66 13.2-90 34.4L264 764.8c-18.4-16.8-35.6-44.8-47.2-74.4L356.4 616l136.8 84c12 8 27.2 7.6 39.2-0.4l123.6-94.4c2.4 0.8 4.4 1.2 6.8 1.6l144.8 80.4C795.6 716.8 778 744.8 758.4 761.6L758.4 761.6z" p-id="1335" fill="#1296db"></path></svg>