<?xml version="1.0" standalone="no"?><!DOCTYPE svg PUBLIC "-//W3C//DTD SVG 1.1//EN" "http://www.w3.org/Graphics/SVG/1.1/DTD/svg11.dtd"><svg t="1617371533405" class="icon" viewBox="0 0 1024 1024" version="1.1" xmlns="http://www.w3.org/2000/svg" p-id="2279" xmlns:xlink="http://www.w3.org/1999/xlink" width="64" height="64"><defs><style type="text/css"></style></defs><path d="M878.933333 503.466667l-4.266666-4.266667c-27.733333-29.866667-44.8-68.266667-55.466667-108.8v-44.8c0-14.933333 0-32-2.133333-46.933333-6.4-68.266667-42.666667-132.266667-100.266667-179.2-57.6-49.066667-136.533333-76.8-213.333333-76.8-74.666667 0-151.466667 27.733333-211.2 74.666666C234.666667 164.266667 200.533333 228.266667 192 296.533333c0 25.6 0 51.2-2.133333 78.933334v19.2c-8.533333 38.4-27.733333 74.666667-53.333334 104.533333l-4.266666 4.266667C117.333333 526.933333 108.8 554.666667 106.666667 586.666667v17.066666c0 36.266667 14.933333 74.666667 38.4 102.4l2.133333 2.133334c34.133333 36.266667 83.2 57.6 132.266667 64 74.666667 8.533333 149.333333 12.8 226.133333 12.8 74.666667 0 151.466667-4.266667 226.133333-12.8 51.2-4.266667 98.133333-27.733333 132.266667-64l2.133333-2.133334c25.6-32 40.533333-72.533333 38.4-121.6-2.133333-27.733333-10.666667-57.6-25.6-81.066666zM812.8 661.333333c-23.466667 23.466667-53.333333 38.4-87.466667 40.533334-145.066667 14.933333-292.266667 14.933333-437.333333 0-34.133333-4.266667-64-17.066667-87.466667-40.533334-12.8-17.066667-21.333333-38.4-21.333333-57.6v-14.933333c0-14.933333 6.4-32 14.933333-44.8 34.133333-38.4 57.6-85.333333 68.266667-136.533333l2.133333-27.733334c0-27.733333 0-51.2 2.133334-74.666666 6.4-64 42.666667-106.666667 74.666666-130.133334 46.933333-38.4 106.666667-59.733333 166.4-59.733333 61.866667 0 121.6 21.333333 168.533334 59.733333 29.866667 25.6 68.266667 68.266667 74.666666 130.133334 2.133333 12.8 2.133333 27.733333 0 42.666666 0 19.2 0 34.133333 2.133334 51.2v4.266667c10.666667 55.466667 34.133333 102.4 70.4 142.933333 8.533333 12.8 12.8 29.866667 14.933333 44.8-4.266667 27.733333-10.666667 51.2-25.6 70.4zM637.866667 885.333333c-14.933333-12.8-36.266667-10.666667-49.066667 4.266667-4.266667 6.4-10.666667 12.8-19.2 17.066667-21.333333 17.066667-51.2 25.6-78.933333 21.333333-27.733333-4.266667-55.466667-17.066667-72.533334-40.533333-12.8-12.8-34.133333-14.933333-49.066666-2.133334-14.933333 12.8-17.066667 34.133333-6.4 49.066667 29.866667 36.266667 72.533333 59.733333 119.466666 66.133333 6.4 0 14.933333 2.133333 21.333334 2.133334 40.533333 0 78.933333-12.8 108.8-36.266667 10.666667-8.533333 21.333333-19.2 32-29.866667 12.8-17.066667 10.666667-40.533333-6.4-51.2z" p-id="2280" fill="#1296db"></path></svg>